# Blender v2.79 (sub 0) OBJ File: ''
# www.blender.org
mtllib skybox.mtl
o Cube
v 0.500000 -0.500000 -0.500000
v 0.500000 -0.500000 0.500000
v -0.500000 -0.500000 0.500000
v -0.500000 -0.500000 -0.500000
v 0.500000 0.500000 -0.500000
v 0.500000 0.500000 0.500000
v -0.500000 0.500000 0.500000
v -0.500000 0.500000 -0.500000
vt 0.249948 0.000100
vt 0.249948 0.333366
vt 0.499797 0.333366
vt 0.499797 0.000100
vt 0.249948 0.999900
vt 0.499797 0.999900
vt 0.499797 0.666633
vt 0.249948 0.666633
vt 0.999493 0.333367
vt 0.749645 0.333366
vt 0.749645 0.666633
vt 0.999493 0.666633
vt 0.000100 0.666633
vt 0.000100 0.333366
vn -0.5773 0.5773 0.5773
vn 0.5773 0.5773 0.5773
vn 0.5773 0.5773 -0.5773
vn -0.5773 0.5773 -0.5773
vn -0.5773 -0.5773 0.5773
vn -0.5773 -0.5773 -0.5773
vn 0.5773 -0.5773 -0.5773
vn 0.5773 -0.5773 0.5773
usemtl Material
s 1
f 1/1/1 4/2/2 3/3/3 2/4/4
f 5/5/5 6/6/6 7/7/7 8/8/8
f 1/9/1 2/10/4 6/11/6 5/12/5
f 2/10/4 3/3/3 7/7/7 6/11/6
f 3/3/3 4/2/2 8/8/8 7/7/7
f 5/13/5 8/8/8 4/2/2 1/14/1
