# Blender v2.79 (sub 0) OBJ File: ''
# www.blender.org
o Cube.001
v 1.000000 -1.000000 -1.000000
v -1.000000 -1.000000 -1.000000
v -1.000000 -1.000000 1.000000
v 1.000000 -1.000000 1.000000
v 1.000000 1.000000 -1.000000
v 1.000000 1.000000 1.000000
v -1.000000 1.000000 1.000000
v -1.000000 1.000000 -1.000000
vt 0.249948 0.333366
vt 0.499797 0.000100
vt 0.249948 0.000100
vt 0.499797 0.999900
vt 0.249948 0.666633
vt 0.249948 0.999900
vt 0.749645 0.333366
vt 0.999493 0.666633
vt 0.999493 0.333367
vt 0.499797 0.333366
vt 0.749645 0.666633
vt 0.499797 0.666633
vt 0.000100 0.333366
vt 0.000100 0.666633
vn 0.5774 0.5774 0.5774
vn -0.5774 0.5774 -0.5774
vn -0.5774 0.5774 0.5774
vn -0.5774 -0.5774 -0.5774
vn 0.5774 -0.5774 0.5774
vn -0.5774 -0.5774 0.5774
vn 0.5774 0.5774 -0.5774
vn 0.5774 -0.5774 -0.5774
s 1
f 2/1/1 4/2/2 1/3/3
f 6/4/4 8/5/5 5/6/6
f 4/7/2 5/8/6 1/9/3
f 3/10/7 6/11/4 4/7/2
f 2/1/1 7/12/8 3/10/7
f 8/5/5 1/13/3 5/14/6
f 2/1/1 3/10/7 4/2/2
f 6/4/4 7/12/8 8/5/5
f 4/7/2 6/11/4 5/8/6
f 3/10/7 7/12/8 6/11/4
f 2/1/1 8/5/5 7/12/8
f 8/5/5 2/1/1 1/13/3
